<svg xmlns="http://www.w3.org/2000/svg" xmlns:xlink="http://www.w3.org/1999/xlink" width="4096" height="1232" viewBox="0 0 4096 1232">
  <defs>
    <clipPath id="clip-logo_beta_white">
      <rect width="4096" height="1232"/>
    </clipPath>
  </defs>
  <g id="logo_beta_white" clip-path="url(#clip-logo_beta_white)">
    <g id="logo_beta" transform="translate(173.999 226.988)">
      <path id="Path_10831" data-name="Path 10831" d="M883.143,235.6v12.616a192.876,192.876,0,0,0,2.813,37.808H855.018c-2.812-6.308-4.018-22.38-4.018-37.165V153.2c0-31.54,7.594-45.2,17.156-53.92A49.179,49.179,0,0,1,903.8,86.217c27.844,0,43.273,17.839,43.273,39.777,0,12.054-6.308,26.518-17.6,32.384v1.286a40.179,40.179,0,0,1,29.33,39.777c0,27.6-20.09,45.884-46.286,45.884a41.585,41.585,0,0,1-29.13-9.763Zm0-25.875a26.719,26.719,0,0,0,21.094,10.888c14.344,0,21.3-10.647,21.3-22.179,0-15.228-10.648-23.264-23.465-24.348a35.347,35.347,0,0,0-4.781,0V154a10.809,10.809,0,0,0,3.5-.643,20.812,20.812,0,0,0,16.754-21.737c0-11.531-6.107-19.567-15.67-19.567-11.09,0-18.683,9.362-18.683,35.237Z" transform="translate(2396.201 15.559)" fill="#f6234e"/>
      <path id="Path_10832" data-name="Path 10832" d="M992.416,148.424a136.973,136.973,0,0,1-.884,14.585H914.148a21.136,21.136,0,0,0,6.951,16.071,25.958,25.958,0,0,0,17.6,5.665q15.227,0,19.567-9.764h32.625a36.162,36.162,0,0,1-16.835,25.112,62.077,62.077,0,0,1-35.317,9.683q-26.72,0-42.188-14.786T881,153.848q0-25.634,15.429-40.54t41.1-14.906a56.251,56.251,0,0,1,39.576,13.9A46.647,46.647,0,0,1,992.416,148.424Zm-78.268-6.107H959.59a22.5,22.5,0,0,0-5.866-16.071,22.1,22.1,0,0,0-16.313-5.665,23.263,23.263,0,0,0-16.835,5.987,21.617,21.617,0,0,0-6.428,15.75Z" transform="translate(2486.738 52.313)" fill="#f6234e"/>
      <path id="Path_10833" data-name="Path 10833" d="M975.416,201.39a83.851,83.851,0,0,0,11.531-.643v26.518a125.4,125.4,0,0,1-22.179,1.728,67.977,67.977,0,0,1-10-.643,41.62,41.62,0,0,1-9.8-2.933,24.111,24.111,0,0,1-8.92-6.188,32.709,32.709,0,0,1-5.987-11.29,54.34,54.34,0,0,1-2.491-17.4V148.8H911.05V122.478h16.514V91.38h33.268v31.1h23.706V148.8H960.832v34.795q0,10.647,3.7,14.223A14.986,14.986,0,0,0,975.416,201.39Z" transform="translate(2577.426 31.29)" fill="#f6234e"/>
      <path id="Path_10834" data-name="Path 10834" d="M982.08,208.886a45.081,45.081,0,0,1-36.161-15.429,58.865,58.865,0,0,1-13.259-39.777,57.9,57.9,0,0,1,13.7-39.576,45.6,45.6,0,0,1,36.161-15.67,40.421,40.421,0,0,1,19.969,4.822,31.459,31.459,0,0,1,13.058,13.058V101.287h33.027V206.074h-33.228V191.288a32.5,32.5,0,0,1-13.38,12.737,41.062,41.062,0,0,1-19.888,4.862Zm9.563-27.6a22.7,22.7,0,0,0,18.483-7.835,29.853,29.853,0,0,0,6.508-19.768,29.531,29.531,0,0,0-6.508-19.567,22.7,22.7,0,0,0-18.483-7.835,23.223,23.223,0,0,0-18.161,7.594,28.447,28.447,0,0,0-6.831,19.768,28.849,28.849,0,0,0,6.831,20.089,23.1,23.1,0,0,0,18.2,7.433Z" transform="translate(2642.482 52.481)" fill="#f6234e"/>
      <path id="Path_10835" data-name="Path 10835" d="M450.83,304.508A96.43,96.43,0,0,1,514.594,335q24.951,26.8,24.951,70.554,0,55.447-36.965,87.51T401.53,525.211H217.31V93.81H394.78q64.085,0,101.371,29.893t37.326,82.246q0,41.3-22.179,66.255T450.83,304.508ZM372.762,165.891H317.315V270.637h55.447q28.326,0,44.679-13.862t16.313-38.491q0-24.63-16.071-38.491T372.762,165.891Zm6.79,283.422q27.723,0,43.755-15.107t16.071-41.585a48.978,48.978,0,0,0-16.313-38.491q-16.312-14.464-43.433-14.464H317.114V449.353Z" transform="translate(483.795 38.623)" fill="#fff"/>
      <path id="Path_10836" data-name="Path 10836" d="M515.26,127.24h94.26V415q0,68.987-42.509,107.2-40.179,34.514-109.046,34.514-72.081,0-109.688-30.817a99.925,99.925,0,0,1-36.965-78.268h94.9q3.094,40.179,51.75,40.179,57.3,0,57.3-66.536V375.063q-25.875,49.3-94.26,49.3-54.844,0-82.246-33.268t-27.4-91.206V127.24h94.26V285.585q0,64.286,52.233,64.085,27.723,0,42.509-20.089t14.786-55.166Z" transform="translate(767.475 139.511)" fill="#fff"/>
      <path id="Path_10837" data-name="Path 10837" d="M580.642,417.1a237.054,237.054,0,0,0,32.666-1.848v75.175a355.062,355.062,0,0,1-62.84,4.942,192.855,192.855,0,0,1-28.326-1.848,118.008,118.008,0,0,1-27.723-8.317,68.748,68.748,0,0,1-25.273-17.558A92.811,92.811,0,0,1,452.19,435.5a154.045,154.045,0,0,1-7.071-49.3V267.954H398.27V193.422h46.849V105.31h94.26v88.112h67.139v74.572H539.338v98.6q0,30.214,10.487,40.179T580.642,417.1Z" transform="translate(1029.912 73.329)" fill="#fff"/>
      <path id="Path_10838" data-name="Path 10838" d="M775.025,266.771a388.976,388.976,0,0,1-2.451,41.3H553.2q1.246,28.969,19.728,44.96t49.9,16.072q43.112,0,55.447-27.723h92.411q-6.79,43.755-47.773,71.157T622.787,439.982q-75.777,0-119.532-41.907T459.46,282.2q0-72.684,43.755-114.912T619.734,125.1q68.987,0,112.139,39.456T775.025,266.771ZM553.2,249.534H681.971q-.6-29.572-16.634-45.6t-46.206-16.072q-30.215,0-47.773,16.956a61.233,61.233,0,0,0-18.241,44.719Z" transform="translate(1214.577 133.053)" fill="#fff"/>
      <path id="Path_10839" data-name="Path 10839" d="M554.84,415.094V137.86h25.875v74.492a112.821,112.821,0,0,1,30.174-57.938q23.424-24.107,64.688-24.107a96.188,96.188,0,0,1,60.992,19.728q25.272,19.728,31.42,60.268a104.988,104.988,0,0,1,34.554-57.014,94.945,94.945,0,0,1,64.085-22.781q44.96,0,71.8,26.2t26.88,82.768V415.094H940.035V245.017q0-47.451-21.576-69.309t-57.3-21.857a74.211,74.211,0,0,0-65.01,33.871q-23.1,33.911-23.1,88.112v139.26H747.176V257.352q0-103.5-78.871-103.5-43.755,0-65.612,35.116t-21.857,86.867v139.26Z" transform="translate(1502.423 148.66)" fill="#fff"/>
      <path id="Path_10840" data-name="Path 10840" d="M708.2,162.146a28.728,28.728,0,0,1-21.576-8.92,30.254,30.254,0,0,1-8.638-21.857,29.491,29.491,0,0,1,30.174-30.174,30.053,30.053,0,0,1,22.178,8.638,29.289,29.289,0,0,1,8.639,21.576,30.293,30.293,0,0,1-8.639,21.857A29.492,29.492,0,0,1,708.2,162.146ZM695.263,502.9V225.669h25.875V502.9Z" transform="translate(1874.04 60.851)" fill="#fff"/>
      <path id="Path_10841" data-name="Path 10841" d="M714.79,415.008V137.773h25.875v76.34A106.6,106.6,0,0,1,777.63,153.4q28.326-23.1,73.929-23.1,53.6,0,80.72,31.1T959.4,251.68V414.967H932.921V259.716q0-105.992-88.715-105.992-50.545,0-77.023,34.514t-26.478,91.206V415.008Z" transform="translate(1985.135 148.746)" fill="#fff"/>
      <path id="Path_10842" data-name="Path 10842" d="M1054.538,279.5H821.018v1.246q0,53,29.572,85.34t78.389,32.264a111.856,111.856,0,0,0,60.871-16.071,84.375,84.375,0,0,0,35.559-44.2h25.875a99.483,99.483,0,0,1-42.509,60.992,136.328,136.328,0,0,1-79.313,23.384q-60.992,0-97.956-40.179T794.54,275.687q0-65.934,36.161-105.67t96.108-39.737q57.295,0,93.054,35.719t35.719,91.206A219.531,219.531,0,0,1,1054.538,279.5ZM926.97,152.579q-45,0-73.648,28.648t-31.742,76.1h208.247q0-46.206-28.125-75.5t-74.693-29.25Z" transform="translate(2225.811 148.686)" fill="#fff"/>
      <path id="Path_10843" data-name="Path 10843" d="M80.875,235.55c1.045,1.567,2.17,3.174,3.335,4.661a55.089,55.089,0,0,0,3.777,4.339A52.717,52.717,0,0,0,92,248.568a50.519,50.519,0,0,0,4.54,3.5c1.567,1.085,3.254,2.13,4.9,3.094a57.52,57.52,0,0,0,5.183,2.572,55.826,55.826,0,0,0,5.384,2.009c1.848.562,3.7,1.125,5.545,1.527a52.236,52.236,0,0,0,5.665.924,55.756,55.756,0,0,0,5.705.4h5.746a55.808,55.808,0,0,0,5.705-.723A57.454,57.454,0,0,0,146,260.541a56.223,56.223,0,0,0,5.464-1.808,54.856,54.856,0,0,0,5.263-2.371c1.687-.884,3.375-1.848,4.942-2.853a53,53,0,0,0,4.7-3.375,51.706,51.706,0,0,0,4.3-3.737,64.81,64.81,0,0,0,7.473-8.719c1.085-1.567,2.129-3.214,3.094-4.9s1.768-3.415,2.571-5.183a43.4,43.4,0,0,0,2.009-5.384c.563-1.848,1.085-3.656,1.487-5.545s.723-3.777.964-5.665.321-4.018.4-5.705,0-4.018,0-5.746a34.093,34.093,0,0,0-.723-5.705c-.321-1.687-.8-3.777-1.326-5.625a57.213,57.213,0,0,0-1.808-5.464c-.723-1.808-1.527-3.536-2.37-5.263a58.649,58.649,0,0,0-6.188-9.6,55.087,55.087,0,0,0-3.777-4.339q-1.907-2.108-4.018-4.018c-1.446-1.245-3.013-2.451-4.54-3.536a55.576,55.576,0,0,0-4.9-3.054,59.75,59.75,0,0,0-10.607-4.58,55.751,55.751,0,0,0-5.545-1.487q-2.813-.6-5.625-.964c-1.888,0-4.018-.321-5.746-.362a44.2,44.2,0,0,0-5.705,0,55.889,55.889,0,0,0-5.746.723,57.3,57.3,0,0,0-16.473,5.384,46.669,46.669,0,0,0-4.982,2.893c-1.567,1-3.174,2.17-4.661,3.295a47.871,47.871,0,0,0-4.339,3.777c-1.366,1.326-2.692,2.692-4.018,4.018a62.393,62.393,0,0,0-6.589,9.442,55.791,55.791,0,0,0-2.571,5.143,56.981,56.981,0,0,0-2.009,5.384,47.967,47.967,0,0,0-1.487,5.545c-.4,1.848-.723,3.777-.964,5.665a53.7,53.7,0,0,0-.4,5.705c-.04,1.929,0,3.817,0,5.705a33.028,33.028,0,0,0,.723,5.746A56.249,56.249,0,0,0,73.8,219.96a56.833,56.833,0,0,0,1.848,5.5c.683,1.768,1.527,3.5,2.37,5.223A45.249,45.249,0,0,0,80.875,235.55Z" transform="translate(43.864 194.489)" fill="#f6234e"/>
      <path id="Path_10844" data-name="Path 10844" d="M474.014,201.9A166.341,166.341,0,0,0,269.1,87.232c-1.326.362-2.612.844-4.018,1.326L99.707,135.246a58.642,58.642,0,1,0,31.9,112.863l169.274-47.853,1.969-.643a48.817,48.817,0,0,1,24.549,94.3,58.642,58.642,0,1,0,31.9,112.862,48.874,48.874,0,0,1,26.6,94.059L216.628,548.847a58.642,58.642,0,0,0,31.9,112.863L417.8,613.857a166.019,166.019,0,0,0,47.331-297.766A165.376,165.376,0,0,0,474.014,201.9Z" transform="translate(0 0)" fill="#fff"/>
    </g>
  </g>
</svg>
